<?xml version="1.0" encoding="UTF-8" standalone="no"?><!DOCTYPE svg PUBLIC "-//W3C//DTD SVG 1.1//EN" "http://www.w3.org/Graphics/SVG/1.1/DTD/svg11.dtd"><svg width="100%" height="100%" viewBox="0 0 2360 394" version="1.1" xmlns="http://www.w3.org/2000/svg" xmlns:xlink="http://www.w3.org/1999/xlink" xml:space="preserve" xmlns:serif="http://www.serif.com/" style="fill-rule:evenodd;clip-rule:evenodd;stroke-linejoin:round;stroke-miterlimit:2;"><g><g><g id="XMLID_4915_"><path d="M219.459,204.716l212.75,1.479l37.646,0.291c0.166,-3.145 0.041,-7.25 -0.167,-11.729c-0.167,-9.604 -0.958,-19.187 -2.646,-28.729c-0.187,-1.729 -0.416,-3.292 -0.541,-4.562c-0.375,-2.75 -0.584,-4.396 -0.584,-4.396l-39.208,-0.063l-236.958,-1.687l29.708,49.396Z" style="fill:#59bcfb;fill-rule:nonzero;"/></g><g id="XMLID_4914_"><path d="M242.417,62.591c44.979,-15.938 94.604,-8.313 132.209,19.416l-168.313,-0.729l-54.396,-0.229l-100.729,-0.479l29.625,49.375l41.833,0.187l41.125,0.188l252.771,1.125l41.375,0.25c-3.583,-9.396 -8.083,-18.667 -13.458,-27.625c-4.688,-7.813 -10,-14.896 -15.563,-21.688c-55.729,-67.854 -154.104,-86.604 -231.687,-40.125c-9.792,5.875 -18.75,12.667 -26.958,20l72.166,0.334Z" style="fill:#fff;fill-rule:nonzero;"/></g><g id="XMLID_4911_"><path d="M135.396,289.507c51.188,85.313 161.938,113 247.25,61.813c29.375,-17.625 51.667,-42.334 66.5,-70.5c8.105,-15.417 13.896,-31.854 17.355,-48.875l-38.146,-0.417l-129.438,-1.458l29.625,49.375l77.084,0.854c-10.98,15.229 -25.105,28.521 -42.292,38.833c-67.604,40.563 -155.188,18.667 -195.75,-48.937c-21.563,-35.938 -25.104,-77.375 -13.875,-114.5l-14.688,-0.042l-24.145,-0.104c-10.396,44.062 -4.667,91.979 20.52,133.958Z" style="fill:#33a828;fill-rule:nonzero;"/></g></g></g><text x="552.32px" y="311.983px" style="font-family:'AHuxleyBold', 'a_Huxley', fantasy;font-weight:700;font-size:354.05px;fill:#fff;">ТЕРМОС</text><rect x="0" y="0" width="2359.44" height="393.484" style="fill:none;"/></svg>