<?xml version="1.0" encoding="UTF-8" standalone="no"?><!DOCTYPE svg PUBLIC "-//W3C//DTD SVG 1.1//EN" "http://www.w3.org/Graphics/SVG/1.1/DTD/svg11.dtd"><svg width="100%" height="100%" viewBox="0 0 1597 336" version="1.1" xmlns="http://www.w3.org/2000/svg" xmlns:xlink="http://www.w3.org/1999/xlink" xml:space="preserve" xmlns:serif="http://www.serif.com/" style="fill-rule:evenodd;clip-rule:evenodd;stroke-linejoin:round;stroke-miterlimit:2;"><g id="Layer_1"><path d="M222.681,105.383c6.538,-8.189 5.781,-8.878 -1.651,-1.514l-109.907,109.081c-7.433,7.364 -18.926,6.745 -25.533,-1.376l-42.187,-52.029c-6.607,-8.121 -6.744,-21.541 -0.344,-29.868l66.688,-85.957c6.4,-8.259 5.505,-9.084 -1.996,-1.789l-75.703,73.5c-7.502,7.295 -18.857,6.813 -25.257,-1.101c-6.401,-7.914 -6.263,-20.99 0.344,-29.111l55.4,-68.339c6.607,-8.121 20.578,-14.797 31.039,-14.797l101.51,0c10.461,0 13.765,6.745 7.295,15.003l-84.856,108.187c-6.469,8.258 -5.643,8.946 1.858,1.651l113.417,-111.421c7.502,-7.363 21.266,-13.351 30.694,-13.351c9.429,0 22.505,6.676 29.111,14.797l23.537,29.042c6.607,8.121 6.676,21.472 0.138,29.731l-109.081,137.572c-6.538,8.19 -5.712,8.878 1.72,1.514l121.813,-120.78c7.433,-7.364 17.068,-9.016 21.403,-3.648c4.336,5.368 2.478,16.38 -4.129,24.501l-158.425,195.382c-6.607,8.121 -17.412,8.121 -23.95,-0l-41.292,-50.928c-6.607,-8.12 -6.676,-21.472 -0.138,-29.73l98.482,-124.222Z" style="fill:#fff;fill-rule:nonzero;stroke:#fff;stroke-width:4.17px;"/></g><g><g><g><path d="M720.496,132.144l71.95,161.114l-89.852,-0l-62.827,-158.273l53.962,-129.7l84.946,-0l-58.179,126.859Zm-296.408,-126.859l84.946,-0l53.877,129.7l-62.742,158.273l-89.851,-0l71.95,-161.114l-58.18,-126.859Zm139.597,287.973l0,-287.973l75.393,-0l0,287.973l-75.393,-0Z" style="fill:#fff;fill-rule:nonzero;stroke:#fff;stroke-width:4.17px;"/><path d="M806.56,5.285l75.393,-0l0,97.942l83.914,-97.942l71.95,-0l-0,287.973l-75.479,-0l-0,-181.941l-0.689,-0l-79.696,96.995l0,84.946l-75.393,-0l0,-287.973Z" style="fill:#fff;fill-rule:nonzero;stroke:#fff;stroke-width:4.17px;"/><path d="M1088.94,293.258l0,-214.302l75.479,0l0,149.409l43.291,0c9.926,0 17.873,-0.975 23.84,-2.926c5.967,-1.951 8.951,-6.713 8.951,-14.287c-0,-6.598 -2.539,-13.412 -7.617,-20.44c-5.078,-7.029 -11.561,-13.771 -19.451,-20.226c-7.889,-6.454 -15.907,-12.178 -24.055,-17.17c-8.147,-4.991 -15.291,-8.864 -21.43,-11.618l23.582,-17.988c9.926,-6.942 18.461,-13.77 25.604,-20.483c7.143,-6.713 10.715,-13.283 10.715,-19.709c0,-4.303 -1.147,-7.402 -3.442,-9.295c-2.295,-1.894 -5.681,-3.056 -10.156,-3.486c-4.475,-0.43 -11.705,-0.645 -21.688,-0.645l-117.737,-0l17.643,-64.807l136.069,-0c21,-0 37.782,3.17 50.348,9.51c12.565,6.34 21.358,14.502 26.379,24.485c5.02,9.984 7.53,20.857 7.53,32.619c0,8.779 -1.678,16.983 -5.035,24.615c-3.356,7.631 -7.702,14.516 -13.038,20.655c-5.336,6.139 -11.992,12.652 -19.967,19.537c15.434,11.074 27.741,23.84 36.921,38.299c9.181,14.459 13.771,30.381 13.771,47.766c-0,12.278 -2.84,23.682 -8.521,34.211c-5.68,10.528 -15.778,19.206 -30.294,26.034c-14.517,6.828 -34.111,10.242 -58.783,10.242l-138.909,-0Z" style="fill:#fff;fill-rule:nonzero;stroke:#fff;stroke-width:4.17px;"/><path d="M1582.09,293.258l-75.392,-0l-0,-91.315l-82.537,0c0.402,29.492 10.041,59.93 28.918,91.315l-61.278,40.537c-9.295,-13.943 -17.314,-28.789 -24.055,-44.539c-6.742,-15.75 -11.892,-31.988 -15.449,-48.713c-3.557,-16.725 -5.336,-33.35 -5.336,-49.874c0,-17.213 1.865,-34.125 5.594,-50.736c3.73,-16.61 9.467,-32.432 17.213,-47.464c7.746,-15.033 17.443,-28.373 29.09,-40.021c12.795,-12.909 26.494,-22.793 41.096,-29.649c14.603,-6.857 29.822,-11.49 45.658,-13.899c15.836,-2.41 34.024,-3.615 54.565,-3.615l37.008,-0l17.643,64.807l-59.213,-0c-24.557,-0 -43.936,3.528 -58.137,10.586c-14.2,7.057 -24.126,14.946 -29.778,23.667c-5.652,8.722 -11.031,19.623 -16.137,32.705l75.135,0l-0,-58.094l75.392,0l0,214.302Z" style="fill:#fff;fill-rule:nonzero;stroke:#fff;stroke-width:4.17px;"/></g></g></g></svg>