<?xml version="1.0" encoding="UTF-8" standalone="no"?><!DOCTYPE svg PUBLIC "-//W3C//DTD SVG 1.1//EN" "http://www.w3.org/Graphics/SVG/1.1/DTD/svg11.dtd"><svg width="100%" height="100%" viewBox="0 0 2360 394" version="1.1" xmlns="http://www.w3.org/2000/svg" xmlns:xlink="http://www.w3.org/1999/xlink" xml:space="preserve" xmlns:serif="http://www.serif.com/" style="fill-rule:evenodd;clip-rule:evenodd;stroke-linejoin:round;stroke-miterlimit:2;"><g><g><g id="XMLID_4915_"><path d="M222.435,213.909l212.75,1.479l37.646,0.292c0.167,-3.146 0.042,-7.25 -0.167,-11.729c-0.166,-9.604 -0.958,-19.188 -2.645,-28.729c-0.188,-1.73 -0.417,-3.292 -0.542,-4.563c-0.375,-2.75 -0.583,-4.396 -0.583,-4.396l-39.209,-0.062l-236.958,-1.688l29.708,49.396Z" style="fill:#59bcfb;fill-rule:nonzero;"/></g><g id="XMLID_4914_"><path d="M245.394,71.784c44.979,-15.937 94.604,-8.312 132.208,19.417l-168.313,-0.729l-54.395,-0.23l-100.73,-0.479l29.625,49.375l41.834,0.188l41.125,0.187l252.771,1.125l41.375,0.25c-3.584,-9.396 -8.084,-18.666 -13.459,-27.625c-4.687,-7.812 -10,-14.896 -15.562,-21.687c-55.729,-67.854 -154.104,-86.604 -231.688,-40.125c-9.791,5.875 -18.75,12.666 -26.958,20l72.167,0.333Z" style="fill:#133cac;fill-rule:nonzero;"/></g><g id="XMLID_4911_"><path d="M138.373,298.701c51.187,85.312 161.937,113 247.25,61.812c29.375,-17.625 51.666,-42.333 66.5,-70.5c8.104,-15.416 13.896,-31.854 17.354,-48.875l-38.146,-0.416l-129.437,-1.459l29.625,49.375l77.083,0.854c-10.979,15.23 -25.104,28.521 -42.292,38.834c-67.604,40.562 -155.187,18.666 -195.75,-48.938c-21.562,-35.937 -25.104,-77.375 -13.875,-114.5l-14.687,-0.041l-24.146,-0.105c-10.396,44.063 -4.667,91.98 20.521,133.959Z" style="fill:#33a828;fill-rule:nonzero;"/></g></g></g><text x="555.296px" y="321.177px" style="font-family:'AHuxleyBold', 'a_Huxley', fantasy;font-weight:700;font-size:354.05px;fill:#133cac;">ТЕРМОС</text><rect x="0" y="0" width="2359.44" height="393.484" style="fill:none;"/></svg>