<?xml version="1.0" encoding="UTF-8" standalone="no"?><!DOCTYPE svg PUBLIC "-//W3C//DTD SVG 1.1//EN" "http://www.w3.org/Graphics/SVG/1.1/DTD/svg11.dtd"><svg width="100%" height="100%" viewBox="0 0 1593 332" version="1.1" xmlns="http://www.w3.org/2000/svg" xmlns:xlink="http://www.w3.org/1999/xlink" xml:space="preserve" xmlns:serif="http://www.serif.com/" style="fill-rule:evenodd;clip-rule:evenodd;stroke-linejoin:round;stroke-miterlimit:2;"><g id="Layer_1"><path d="M220.598,103.3c6.538,-8.19 5.781,-8.878 -1.652,-1.514l-109.906,109.081c-7.433,7.364 -18.926,6.744 -25.533,-1.376l-42.187,-52.029c-6.607,-8.121 -6.744,-21.541 -0.344,-29.868l66.687,-85.957c6.401,-8.259 5.506,-9.085 -1.996,-1.79l-75.702,73.501c-7.502,7.295 -18.857,6.813 -25.258,-1.101c-6.4,-7.915 -6.262,-20.991 0.344,-29.111l55.401,-68.34c6.607,-8.12 20.578,-14.796 31.038,-14.796l101.511,-0c10.461,-0 13.764,6.744 7.295,15.003l-84.856,108.186c-6.469,8.259 -5.643,8.947 1.858,1.652l113.417,-111.421c7.501,-7.364 21.265,-13.351 30.694,-13.351c9.428,-0 22.504,6.675 29.111,14.796l23.537,29.043c6.607,8.121 6.675,21.472 0.137,29.73l-109.081,137.573c-6.537,8.19 -5.712,8.878 1.721,1.514l121.813,-120.78c7.432,-7.364 17.067,-9.016 21.403,-3.648c4.336,5.368 2.478,16.379 -4.129,24.5l-158.426,195.383c-6.606,8.12 -17.411,8.12 -23.949,-0l-41.293,-50.928c-6.607,-8.121 -6.675,-21.472 -0.137,-29.73l98.482,-124.222Z" style="fill:url(#_Linear1);fill-rule:nonzero;"/></g><g><g><g><path d="M718.412,130.061l71.95,161.114l-89.851,-0l-62.828,-158.274l53.963,-129.7l84.946,0l-58.18,126.86Zm-296.407,-126.86l84.946,0l53.876,129.7l-62.741,158.274l-89.852,-0l71.951,-161.114l-58.18,-126.86Zm139.597,287.974l-0,-287.974l75.393,0l-0,287.974l-75.393,-0Z" style="fill:#007241;fill-rule:nonzero;"/><path d="M804.477,3.201l75.393,0l-0,97.942l83.913,-97.942l71.951,0l-0,287.974l-75.479,-0l-0,-181.942l-0.689,0l-79.696,96.996l-0,84.946l-75.393,-0l0,-287.974Z" style="fill:#007241;fill-rule:nonzero;"/><path d="M1086.86,291.175l0,-214.302l75.479,0l0,149.409l43.291,-0c9.926,-0 17.872,-0.976 23.84,-2.927c5.967,-1.95 8.95,-6.713 8.95,-14.286c0,-6.599 -2.539,-13.412 -7.616,-20.441c-5.078,-7.028 -11.562,-13.77 -19.451,-20.225c-7.889,-6.455 -15.908,-12.178 -24.055,-17.17c-8.148,-4.992 -15.291,-8.865 -21.43,-11.619l23.581,-17.987c9.927,-6.943 18.461,-13.771 25.605,-20.484c7.143,-6.713 10.715,-13.282 10.715,-19.709c-0,-4.303 -1.148,-7.401 -3.443,-9.295c-2.295,-1.893 -5.68,-3.055 -10.155,-3.485c-4.476,-0.431 -11.705,-0.646 -21.689,-0.646l-117.737,0l17.644,-64.807l136.068,0c21,0 37.783,3.171 50.348,9.511c12.566,6.34 21.359,14.502 26.379,24.485c5.021,9.984 7.531,20.856 7.531,32.619c-0,8.778 -1.678,16.983 -5.035,24.614c-3.356,7.631 -7.703,14.517 -13.039,20.656c-5.336,6.139 -11.991,12.651 -19.967,19.537c15.435,11.073 27.742,23.84 36.922,38.298c9.18,14.459 13.77,30.381 13.77,47.766c0,12.279 -2.84,23.683 -8.52,34.211c-5.68,10.529 -15.779,19.207 -30.295,26.035c-14.516,6.828 -34.11,10.242 -58.782,10.242l-138.909,-0Z" style="fill:#007241;fill-rule:nonzero;"/><path d="M1580.01,291.175l-75.393,-0l0,-91.315l-82.536,-0c0.402,29.491 10.041,59.93 28.918,91.315l-61.278,40.536c-9.296,-13.942 -17.314,-28.788 -24.056,-44.538c-6.741,-15.75 -11.891,-31.988 -15.448,-48.713c-3.558,-16.725 -5.336,-33.35 -5.336,-49.875c-0,-17.213 1.864,-34.124 5.594,-50.735c3.729,-16.611 9.467,-32.432 17.213,-47.465c7.746,-15.032 17.442,-28.373 29.09,-40.02c12.795,-12.91 26.493,-22.793 41.096,-29.649c14.602,-6.857 29.821,-11.49 45.657,-13.9c15.836,-2.41 34.025,-3.615 54.565,-3.615l37.008,0l17.644,64.807l-59.213,0c-24.557,0 -43.936,3.529 -58.137,10.586c-14.201,7.058 -24.127,14.947 -29.778,23.668c-5.652,8.721 -11.031,19.623 -16.138,32.705l75.135,-0l0,-58.094l75.393,0l0,214.302Z" style="fill:#007241;fill-rule:nonzero;"/></g></g></g><defs><linearGradient id="_Linear1" x1="0" y1="0" x2="1" y2="0" gradientUnits="userSpaceOnUse" gradientTransform="matrix(-1.93386e-14,315.823,315.823,1.93386e-14,176.209,-7.38544)"><stop offset="0" style="stop-color:#1bbc9b;stop-opacity:1"/><stop offset="0.57" style="stop-color:#00d717;stop-opacity:1"/><stop offset="1" style="stop-color:#262b60;stop-opacity:1"/></linearGradient></defs></svg>